<?xml version='1.0' encoding='utf-8'?>
<svg xmlns="http://www.w3.org/2000/svg" width="139.701366" height="139.701366" viewBox="31.147367 31.147367 139.701366 139.701366" role="img"><defs>
    <mask id="disk-cutout" maskUnits="userSpaceOnUse" x="0" y="0" width="201.9961" height="201.9961">
      <g transform="translate(-513.980469 -220.628906)">
        <path d="M 614.980469 251.8125 C 576.421875 251.8125 545.167969 283.070312 545.167969 321.625 C 545.167969 360.183594 576.421875 391.4375 614.980469 391.4375 C 653.535156 391.4375 684.792969 360.183594 684.792969 321.625 C 684.792969 283.070312 653.535156 251.8125 614.980469 251.8125 " fill="#FFFFFF" />
        <path d="M 602.417969 269.605469 L 604.398438 284.140625 L 588.890625 284.140625 C 588.890625 284.140625 590.3125 321.046875 575.039062 364.632812 L 602.714844 364.632812 C 602.714844 364.632812 606.386719 358.621094 607.828125 345.097656 L 622.21875 345.097656 C 622.21875 345.097656 623.609375 357.449219 627.574219 364.664062 L 655.4375 364.664062 C 655.4375 364.664062 642.722656 334.277344 641.460938 284.140625 L 625.863281 284.140625 L 627.847656 269.605469 Z M 602.417969 269.605469 " fill="#000000" />
        <path d="M 588.519531 339.582031 L 593.578125 339.582031 L 598.378906 319.316406 L 599.785156 319.316406 L 599.785156 317.878906 L 592.390625 317.878906 L 592.390625 319.21875 L 593.859375 319.21875 L 590.542969 337.457031 L 587.515625 317.878906 L 583.5625 317.878906 L 580.257812 337.335938 L 577.042969 319.265625 L 578.414062 319.265625 L 578.414062 317.878906 L 571.113281 317.878906 L 571.113281 319.316406 L 572.667969 319.316406 L 577.324219 339.582031 L 582.464844 339.582031 L 585.398438 325.535156 Z M 594.949219 341.3125 L 587.132812 341.3125 L 585.453125 333.75 L 583.871094 341.3125 L 575.949219 341.3125 L 571.289062 321.046875 L 569.382812 321.046875 L 569.382812 316.144531 L 580.144531 316.144531 L 580.144531 321 L 579.109375 321 L 580.21875 327.230469 L 582.101562 316.144531 L 589 316.144531 L 590.683594 327.015625 L 591.785156 320.949219 L 590.660156 320.949219 L 590.660156 316.144531 L 601.515625 316.144531 L 601.515625 321.046875 L 599.75 321.046875 Z M 594.949219 341.3125 " fill="#000000" />
        <path d="M 638.316406 319.164062 L 639.261719 319.164062 L 639.261719 332.292969 C 639.257812 332.351562 639.195312 335.207031 641.277344 337.355469 C 642.886719 339.015625 645.359375 339.859375 648.628906 339.859375 C 651.910156 339.859375 654.390625 339.011719 656 337.335938 C 658.082031 335.171875 658 332.351562 658 332.324219 L 658 319.164062 L 659.035156 319.164062 L 659.035156 317.863281 L 651.796875 317.863281 L 651.796875 319.164062 L 652.492188 319.164062 L 652.492188 332.292969 C 652.492188 335.789062 650.105469 336.722656 648.695312 336.722656 C 648.214844 336.722656 647.308594 336.65625 646.445312 336.070312 C 645.679688 335.542969 644.769531 334.460938 644.769531 332.292969 L 644.769531 319.164062 L 645.554688 319.164062 L 645.554688 317.863281 L 638.316406 317.863281 Z M 648.628906 341.589844 C 644.859375 341.589844 641.960938 340.5625 640.011719 338.539062 C 637.421875 335.847656 637.527344 332.402344 637.53125 332.257812 L 637.53125 320.894531 L 636.582031 320.894531 L 636.582031 316.132812 L 647.285156 316.132812 L 647.285156 320.894531 L 646.5 320.894531 L 646.5 332.292969 C 646.5 333.429688 646.808594 334.21875 647.421875 334.640625 C 647.910156 334.972656 648.460938 334.988281 648.566406 334.988281 C 649.316406 334.988281 650.761719 334.726562 650.761719 332.292969 L 650.761719 320.894531 L 650.0625 320.894531 L 650.0625 316.132812 L 660.765625 316.132812 L 660.765625 320.894531 L 659.730469 320.894531 L 659.730469 332.292969 C 659.734375 332.402344 659.835938 335.847656 657.246094 338.539062 C 655.300781 340.5625 652.402344 341.589844 648.628906 341.589844 " fill="#000000" />
      </g>
    </mask>
  </defs>
  <g mask="url(#disk-cutout)" id="disk">
    <g transform="translate(-513.980469 -220.628906)">
      <path fill="#005FAD" d="M 614.980469 251.8125 C 576.421875 251.8125 545.167969 283.070312 545.167969 321.625 C 545.167969 360.183594 576.421875 391.4375 614.980469 391.4375 C 653.535156 391.4375 684.792969 360.183594 684.792969 321.625 C 684.792969 283.070312 653.535156 251.8125 614.980469 251.8125 " />
    </g>
  </g>
  <g id="ornaments" transform="translate(-513.980469 -220.628906)" fill="#005FAD">
    <path d="M 625.355469 298.035156 L 624.066406 298.035156 L 624.066406 305.535156 L 617.164062 305.535156 L 617.164062 299.386719 L 621.402344 299.386719 L 621.402344 301.816406 L 618.679688 301.816406 L 618.679688 303.101562 L 622.691406 303.101562 L 622.691406 298.097656 L 615.875 298.097656 L 615.875 306.824219 L 625.355469 306.824219 Z M 625.355469 298.035156 " />
    <path d="M 614.902344 298.097656 L 608.085938 298.097656 L 608.085938 303.105469 L 612.09375 303.105469 L 612.09375 301.816406 L 609.371094 301.816406 L 609.371094 299.382812 L 613.613281 299.382812 L 613.613281 305.535156 L 606.707031 305.535156 L 606.707031 298.035156 L 605.421875 298.035156 L 605.421875 306.824219 L 614.902344 306.824219 Z M 614.902344 298.097656 " />
    <path d="M 622.691406 291.765625 L 618.679688 291.765625 L 618.679688 293.050781 L 621.402344 293.050781 L 621.402344 295.484375 L 617.164062 295.484375 L 617.164062 289.332031 L 624.066406 289.332031 L 624.066406 296.832031 L 625.355469 296.832031 L 625.355469 288.042969 L 615.875 288.042969 L 615.875 296.769531 L 622.691406 296.769531 Z M 622.691406 291.765625 " />
    <path d="M 606.707031 289.332031 L 613.613281 289.332031 L 613.613281 295.484375 L 609.371094 295.484375 L 609.371094 293.050781 L 612.097656 293.050781 L 612.097656 291.765625 L 608.085938 291.765625 L 608.085938 296.769531 L 614.902344 296.769531 L 614.902344 288.042969 L 605.417969 288.042969 L 605.417969 296.832031 L 606.707031 296.832031 Z M 606.707031 289.332031 " />
    </g>
  <g id="wbu" transform="translate(-513.980469 -220.628906)" fill="#005FAD">
    <path d="M 623.453125 334.570312 C 622.953125 335.082031 622.316406 335.125 622.132812 335.125 L 616.90625 335.121094 L 616.90625 330.304688 L 622.003906 330.304688 C 622.25 330.304688 623.996094 330.382812 624.054688 332.699219 C 624.074219 333.511719 623.875 334.140625 623.453125 334.570312 M 623.578125 324.789062 C 623.597656 325.628906 623.398438 326.269531 622.976562 326.695312 C 622.511719 327.175781 621.933594 327.210938 621.769531 327.210938 L 616.90625 327.210938 L 616.90625 322.390625 L 621.644531 322.390625 C 621.90625 322.382812 623.523438 322.453125 623.578125 324.789062 M 627.996094 328.058594 C 629.066406 327.441406 630.585938 326.027344 630.484375 322.976562 C 630.28125 317.179688 624.097656 317.011719 624.027344 317.011719 L 606.902344 317.011719 L 606.902344 323.589844 L 609.664062 323.589844 L 609.664062 334.011719 L 606.902344 334.011719 L 606.902344 340.449219 L 624.101562 340.449219 C 624.171875 340.441406 630.960938 339.917969 630.960938 333.5625 C 630.960938 330.332031 629.164062 328.746094 627.996094 328.058594 " />
    <path d="M 570.25 317.011719 L 570.25 320.179688 L 571.976562 320.179688 L 576.636719 340.449219 L 583.167969 340.449219 L 585.425781 329.640625 L 587.828125 340.449219 L 594.261719 340.449219 L 599.066406 320.179688 L 600.648438 320.179688 L 600.648438 317.011719 L 591.527344 317.011719 L 591.527344 320.082031 L 592.820312 320.082031 L 590.613281 332.234375 L 588.257812 317.011719 L 582.832031 317.011719 L 580.238281 332.28125 L 578.078125 320.132812 L 579.277344 320.132812 L 579.277344 317.011719 Z M 570.25 317.011719 " />
    <path d="M 659.902344 320.027344 L 659.902344 316.996094 L 650.929688 316.996094 L 650.929688 320.027344 L 651.625 320.027344 L 651.625 332.292969 C 651.625 336.035156 648.628906 335.855469 648.628906 335.855469 C 648.628906 335.855469 645.632812 336.035156 645.632812 332.292969 L 645.632812 320.027344 L 646.421875 320.027344 L 646.421875 316.996094 L 637.449219 316.996094 L 637.449219 320.027344 L 638.394531 320.027344 L 638.394531 332.292969 C 638.394531 332.292969 638.074219 340.722656 648.628906 340.722656 C 659.1875 340.722656 658.863281 332.292969 658.863281 332.292969 L 658.863281 320.027344 Z M 659.902344 320.027344 " />
  </g>
</svg>